<svg width="287" height="12" viewBox="0 0 287 12" fill="none" xmlns="http://www.w3.org/2000/svg">
<path d="M286 11V1" stroke="#FD5978" stroke-linecap="round"/>
<path d="M196 11V1" stroke="#B09EE5" stroke-linecap="round"/>
<path d="M106 11V1" stroke="#6FCB98" stroke-linecap="round"/>
<path d="M268 11V1" stroke="#EF6E9A" stroke-linecap="round"/>
<path d="M178 11V1" stroke="#A1C5E1" stroke-linecap="round"/>
<path d="M88 11V1" stroke="#45C089" stroke-linecap="round"/>
<path d="M250 11V1" stroke="#F4678F" stroke-linecap="round"/>
<path d="M160 11V1" stroke="#A5DCDA" stroke-linecap="round"/>
<path d="M70 11V1" stroke="#31C16D" stroke-linecap="round"/>
<path d="M232 11V1" stroke="#E57FB4" stroke-linecap="round"/>
<path d="M142 11V1" stroke="#99D6B9" stroke-linecap="round"/>
<path d="M52 11V1" stroke="#1CC67A" stroke-linecap="round"/>
<path d="M10 11V1" stroke="#00CC85" stroke-linecap="round"/>
<path d="M214 11V1" stroke="#D794D6" stroke-linecap="round"/>
<path d="M124 11V1" stroke="#8BD2BE" stroke-linecap="round"/>
<path d="M34 11V1" stroke="#0EC972" stroke-linecap="round"/>
<path d="M283 11V1" stroke="#FD5978" stroke-linecap="round"/>
<path d="M193 11V1" stroke="#B09EE5" stroke-linecap="round"/>
<path d="M103 11V1" stroke="#61C788" stroke-linecap="round"/>
<path d="M265 11V1" stroke="#EF6E9A" stroke-linecap="round"/>
<path d="M175 11V1" stroke="#A1C5E1" stroke-linecap="round"/>
<path d="M85 11V1" stroke="#37BF84" stroke-linecap="round"/>
<path d="M247 11V1" stroke="#F26A93" stroke-linecap="round"/>
<path d="M157 11V1" stroke="#A5DCDA" stroke-linecap="round"/>
<path d="M67 11V1" stroke="#23C459" stroke-linecap="round"/>
<path d="M229 11V1" stroke="#E57FB4" stroke-linecap="round"/>
<path d="M139 11V1" stroke="#99D6B9" stroke-linecap="round"/>
<path d="M49 11V1" stroke="#1CC67A" stroke-linecap="round"/>
<path d="M7 11L7 1" stroke="#00CC85" stroke-linecap="round"/>
<path d="M211 11V1" stroke="#D794D6" stroke-linecap="round"/>
<path d="M121 11V1" stroke="#8BD2BE" stroke-linecap="round"/>
<path d="M31 11V1" stroke="#0EC972" stroke-linecap="round"/>
<path d="M280 11V1" stroke="#F26A93" stroke-linecap="round"/>
<path d="M190 11V1" stroke="#B09EE5" stroke-linecap="round"/>
<path d="M100 11V1" stroke="#61C788" stroke-linecap="round"/>
<path d="M262 11V1" stroke="#F76387" stroke-linecap="round"/>
<path d="M172 11V1" stroke="#A1C5E1" stroke-linecap="round"/>
<path d="M82 11V1" stroke="#37BF84" stroke-linecap="round"/>
<path d="M244 11V1" stroke="#F16C96" stroke-linecap="round"/>
<path d="M154 11V1" stroke="#A5DCDA" stroke-linecap="round"/>
<path d="M64 11V1" stroke="#23C459" stroke-linecap="round"/>
<path d="M226 11V1" stroke="#E284BC" stroke-linecap="round"/>
<path d="M136 11V1" stroke="#99D6B9" stroke-linecap="round"/>
<path d="M46 11V1" stroke="#1CC67A" stroke-linecap="round"/>
<path d="M4 11L4 1" stroke="#00DE38" stroke-linecap="round"/>
<path d="M208 11V1" stroke="#D794D6" stroke-linecap="round"/>
<path d="M118 11V1" stroke="#8BD2BE" stroke-linecap="round"/>
<path d="M28 11V1" stroke="#0EC972" stroke-linecap="round"/>
<path d="M277 11V1" stroke="#F26A93" stroke-linecap="round"/>
<path d="M187 11V1" stroke="#9FA7E3" stroke-linecap="round"/>
<path d="M97 11V1" stroke="#61C788" stroke-linecap="round"/>
<path d="M259 11V1" stroke="#F76387" stroke-linecap="round"/>
<path d="M169 11V1" stroke="#A2D8DF" stroke-linecap="round"/>
<path d="M79 11V1" stroke="#37BF84" stroke-linecap="round"/>
<path d="M241 11V1" stroke="#F16C96" stroke-linecap="round"/>
<path d="M151 11V1" stroke="#A7DAC1" stroke-linecap="round"/>
<path d="M61 11V1" stroke="#23C459" stroke-linecap="round"/>
<path d="M223 11V1" stroke="#E67DB0" stroke-linecap="round"/>
<path d="M133 11V1" stroke="#99D6B9" stroke-linecap="round"/>
<path d="M43 11V1" stroke="#1CC67A" stroke-linecap="round"/>
<path d="M1 11L1 1" stroke="#00DE38" stroke-linecap="round"/>
<path d="M205 11V1" stroke="#D794D6" stroke-linecap="round"/>
<path d="M115 11V1" stroke="#8BD2BE" stroke-linecap="round"/>
<path d="M25 11V1" stroke="#0EC972" stroke-linecap="round"/>
<path d="M274 11V1" stroke="#F16C96" stroke-linecap="round"/>
<path d="M184 11V1" stroke="#9FA7E3" stroke-linecap="round"/>
<path d="M94 11V1" stroke="#45C089" stroke-linecap="round"/>
<path d="M256 11V1" stroke="#F6658B" stroke-linecap="round"/>
<path d="M166 11V1" stroke="#A2D8DF" stroke-linecap="round"/>
<path d="M76 11V1" stroke="#31C16D" stroke-linecap="round"/>
<path d="M238 11V1" stroke="#EB76A5" stroke-linecap="round"/>
<path d="M148 11V1" stroke="#A7DAC1" stroke-linecap="round"/>
<path d="M58 11V1" stroke="#1CC67A" stroke-linecap="round"/>
<path d="M16 11V1" stroke="#07CA83" stroke-linecap="round"/>
<path d="M220 11V1" stroke="#E381B8" stroke-linecap="round"/>
<path d="M130 11V1" stroke="#99D6B9" stroke-linecap="round"/>
<path d="M40 11V1" stroke="#0EC972" stroke-linecap="round"/>
<path d="M202 11V1" stroke="#D597DA" stroke-linecap="round"/>
<path d="M112 11V1" stroke="#6FCB98" stroke-linecap="round"/>
<path d="M22 11V1" stroke="#07CA83" stroke-linecap="round"/>
<path d="M271 11V1" stroke="#F16C96" stroke-linecap="round"/>
<path d="M181 11V1" stroke="#9FA7E3" stroke-linecap="round"/>
<path d="M91 11V1" stroke="#45C089" stroke-linecap="round"/>
<path d="M253 11V1" stroke="#F6658B" stroke-linecap="round"/>
<path d="M163 11V1" stroke="#A2D8DF" stroke-linecap="round"/>
<path d="M73 11V1" stroke="#31C16D" stroke-linecap="round"/>
<path d="M235 11V1" stroke="#EB76A5" stroke-linecap="round"/>
<path d="M145 11V1" stroke="#A7DAC1" stroke-linecap="round"/>
<path d="M55 11V1" stroke="#1CC67A" stroke-linecap="round"/>
<path d="M13 11V1" stroke="#00CC85" stroke-linecap="round"/>
<path d="M217 11V1" stroke="#E381B8" stroke-linecap="round"/>
<path d="M127 11V1" stroke="#99D6B9" stroke-linecap="round"/>
<path d="M37 11V1" stroke="#0EC972" stroke-linecap="round"/>
<path d="M199 11V1" stroke="#D597DA" stroke-linecap="round"/>
<path d="M109 11V1" stroke="#6FCB98" stroke-linecap="round"/>
<path d="M19 11V1" stroke="#07CA83" stroke-linecap="round"/>
</svg>
