<svg width="109" height="30" viewBox="0 0 109 30" fill="none" xmlns="http://www.w3.org/2000/svg">
<path d="M10.3331 21.277C10.2955 21.4463 10.2861 21.7095 10.3049 22.0668C10.3237 22.4052 10.3331 22.7625 10.3331 23.1385C10.3331 23.4958 10.2955 23.8342 10.2203 24.1539C10.1451 24.4547 9.99466 24.6427 9.76902 24.718C9.54339 24.7932 9.16733 24.859 8.64085 24.9154C8.11437 24.953 7.56909 24.9718 7.005 24.9718C6.44092 24.953 5.91444 24.9154 5.42557 24.859C4.9555 24.7838 4.65465 24.6615 4.52303 24.4923C4.42902 24.3983 4.3444 23.9376 4.26919 23.1103C4.21278 22.283 4.16578 21.2488 4.12817 20.0078C4.09056 18.7481 4.05296 17.366 4.01535 15.8618C3.99655 14.3576 3.98715 12.8816 3.98715 11.4338C3.98715 9.98593 3.99655 8.65093 4.01535 7.42875C4.05296 6.18776 4.09997 5.22881 4.15637 4.55191C4.19398 4.17585 4.45722 3.88441 4.94609 3.67758C5.43497 3.45195 6.04606 3.28272 6.77937 3.1699C7.53148 3.05709 8.34941 2.99128 9.23314 2.97247C10.1357 2.95367 11.0006 2.97247 11.8279 3.02888C12.6741 3.06649 13.4356 3.1323 14.1125 3.22631C14.8082 3.30152 15.3159 3.38614 15.6355 3.48015C16.4252 3.70578 17.0645 4.05364 17.5534 4.52371C18.0611 4.99378 18.4559 5.55786 18.738 6.21596C19.02 6.85526 19.208 7.57917 19.3021 8.38769C19.3961 9.19621 19.4337 10.0517 19.4149 10.9543C19.3961 11.8568 19.3867 12.6653 19.3867 13.3798C19.4055 14.0944 19.3867 14.7431 19.3303 15.3259C19.2927 15.89 19.2174 16.3977 19.1046 16.849C19.0106 17.2814 18.8414 17.6763 18.597 18.0335C18.3525 18.372 18.1457 18.6352 17.9765 18.8233C17.8072 18.9925 17.6662 19.1241 17.5534 19.2181C17.4406 19.3121 17.3654 19.3968 17.3278 19.472C17.2902 19.5284 17.2808 19.6224 17.2996 19.754C17.2996 19.848 17.3842 20.0172 17.5534 20.2617C17.7414 20.5061 17.9577 20.7882 18.2021 21.1078C18.4465 21.4275 18.7004 21.7753 18.9636 22.1514C19.2269 22.5086 19.4525 22.8565 19.6405 23.1949C19.8473 23.5146 19.9884 23.806 20.0636 24.0693C20.1388 24.3137 20.1106 24.4829 19.979 24.5769C19.7721 24.7274 19.3585 24.8402 18.738 24.9154C18.1175 24.9906 17.45 25.0282 16.7355 25.0282C16.0398 25.0282 15.3723 25.0094 14.733 24.9718C14.1125 24.9154 13.68 24.8402 13.4356 24.7462C13.3792 24.7274 13.2758 24.5957 13.1253 24.3513C12.9749 24.1069 12.7963 23.8154 12.5894 23.477C12.4014 23.1385 12.1946 22.7907 11.969 22.4334C11.7621 22.0762 11.5459 21.7753 11.3203 21.5309C11.1134 21.2676 10.916 21.0984 10.728 21.0232C10.5587 20.948 10.4271 21.0326 10.3331 21.277ZM9.96645 15.4106C9.96645 15.8054 10.1357 16.1063 10.4741 16.3131C10.8314 16.5011 11.2168 16.5857 11.6305 16.5669C12.063 16.5481 12.4672 16.4353 12.8433 16.2285C13.2193 16.0216 13.4262 15.7208 13.4638 15.3259C13.5202 14.7807 13.5672 14.273 13.6048 13.8029C13.6612 13.3328 13.6894 12.8534 13.6894 12.3645C13.7082 11.8756 13.6988 11.3585 13.6612 10.8133C13.6424 10.268 13.6048 9.64748 13.5484 8.95178C13.5108 8.53811 13.3134 8.23727 12.9561 8.04924C12.5988 7.84241 12.204 7.73899 11.7715 7.73899C11.3579 7.73899 10.963 7.84241 10.5869 8.04924C10.2297 8.23727 10.0323 8.50991 9.99466 8.86716C9.93825 9.43125 9.90064 10.0705 9.88184 10.7851C9.88184 11.4808 9.89124 12.1483 9.91004 12.7876C9.92885 13.4269 9.93825 13.9909 9.93825 14.4798C9.95705 14.9687 9.96645 15.2789 9.96645 15.4106ZM36.3427 9.00818C36.1735 9.121 35.9103 9.20561 35.553 9.26202C35.1957 9.31843 34.7915 9.36544 34.3402 9.40304C33.889 9.44065 33.4189 9.46886 32.93 9.48766C32.4411 9.50646 31.9805 9.52526 31.548 9.54407C31.1343 9.56287 30.7771 9.58167 30.4762 9.60048C30.1754 9.61928 29.9874 9.65688 29.9122 9.71329C29.7993 9.7885 29.7147 9.92952 29.6583 10.1364C29.6207 10.3432 29.6019 10.5688 29.6019 10.8133C29.6019 11.0577 29.6207 11.2927 29.6583 11.5184C29.7147 11.744 29.7711 11.9132 29.8275 12.026C29.8839 12.1389 30.0626 12.2047 30.3634 12.2235C30.6831 12.2235 31.0215 12.2235 31.3788 12.2235C31.7548 12.2047 32.1121 12.2047 32.4505 12.2235C32.789 12.2423 33.024 12.3081 33.1556 12.4209C33.2873 12.5525 33.4001 12.7594 33.4941 13.0414C33.5881 13.3234 33.6539 13.6337 33.6915 13.9721C33.7291 14.3106 33.7385 14.6584 33.7197 15.0157C33.7009 15.3729 33.6351 15.6738 33.5223 15.9182C33.4471 16.0875 33.2497 16.2003 32.93 16.2567C32.6104 16.2943 32.2437 16.3413 31.83 16.3977C31.4352 16.4353 31.0309 16.5011 30.6173 16.5951C30.2036 16.6891 29.8745 16.8678 29.6301 17.131C29.5549 17.2062 29.5079 17.319 29.4891 17.4695C29.4891 17.6199 29.4985 17.7797 29.5173 17.9489C29.5361 18.1182 29.5643 18.2968 29.6019 18.4848C29.6395 18.6728 29.6771 18.8421 29.7147 18.9925C29.7335 19.1429 29.8933 19.2463 30.1942 19.3027C30.5138 19.3591 30.8993 19.3874 31.3506 19.3874C31.8206 19.3874 32.3283 19.378 32.8736 19.3591C33.4189 19.3215 33.9454 19.3027 34.453 19.3027C34.9607 19.3027 35.412 19.3215 35.8068 19.3591C36.2205 19.3968 36.5119 19.472 36.6812 19.5848C36.8504 19.6976 36.9726 19.989 37.0478 20.4591C37.1418 20.9104 37.1983 21.4087 37.2171 21.9539C37.2359 22.4804 37.2265 22.9881 37.1889 23.477C37.1512 23.9658 37.0948 24.2855 37.0196 24.4359C36.982 24.5111 36.747 24.5863 36.3145 24.6615C35.9009 24.718 35.3556 24.7838 34.6787 24.859C34.0206 24.9154 33.2685 24.9624 32.4223 25C31.5762 25.0376 30.7113 25.0658 29.8275 25.0846C28.9438 25.1222 28.0695 25.1316 27.2045 25.1128C26.3396 25.1128 25.5499 25.0846 24.8354 25.0282C24.1397 24.9906 23.5474 24.9248 23.0585 24.8308C22.5884 24.7368 22.297 24.6239 22.1842 24.4923C21.9397 24.2103 21.7611 23.665 21.6483 22.8565C21.5355 22.048 21.4603 21.0702 21.4227 19.9232C21.3851 18.7575 21.3851 17.4695 21.4227 16.0593C21.4603 14.649 21.5073 13.2012 21.5637 11.7158C21.6201 10.2304 21.6671 8.96118 21.7047 7.90822C21.7423 6.83646 21.8645 5.96212 22.0714 5.28522C22.2782 4.60832 22.6261 4.11005 23.1149 3.7904C23.6226 3.47075 24.3653 3.29212 25.3431 3.25452C26.1892 3.21691 27.1293 3.1793 28.1635 3.1417C29.2164 3.10409 30.2506 3.09469 31.266 3.1135C32.3001 3.1323 33.2591 3.18871 34.1428 3.28272C35.0265 3.35793 35.7316 3.50835 36.2581 3.73399C36.5213 3.84681 36.7 4.15705 36.794 4.66473C36.888 5.1536 36.9162 5.69888 36.8786 6.30058C36.8598 6.88346 36.794 7.43815 36.6812 7.96463C36.5684 8.49111 36.4555 8.83896 36.3427 9.00818ZM52.4507 3.73399C52.6011 3.8092 52.7421 4.05364 52.8737 4.4673C53.0053 4.88096 53.137 5.37924 53.2686 5.96213C53.4002 6.54501 53.5318 7.17491 53.6634 7.85181C53.8139 8.50991 53.9737 9.121 54.1429 9.68509C54.3309 10.2492 54.5378 10.7286 54.7634 11.1235C54.989 11.4996 55.2429 11.6876 55.5249 11.6876C55.6753 11.6876 55.76 11.509 55.7788 11.1517C55.8164 10.7945 55.8164 10.3432 55.7788 9.7979C55.7412 9.23382 55.6847 8.62273 55.6095 7.96463C55.5531 7.28772 55.5061 6.64843 55.4685 6.04674C55.4309 5.44505 55.4215 4.91857 55.4403 4.4673C55.4779 4.01603 55.5719 3.71519 55.7224 3.56476C55.7976 3.48955 55.9856 3.42374 56.2864 3.36733C56.5873 3.31092 56.9445 3.27332 57.3582 3.25452C57.7719 3.23571 58.2137 3.23571 58.6838 3.25452C59.1539 3.25452 59.5863 3.28272 59.9812 3.33913C60.3949 3.37673 60.7427 3.44254 61.0248 3.53656C61.3068 3.61177 61.476 3.71519 61.5324 3.8468C61.5888 3.97843 61.6264 4.35448 61.6452 4.97498C61.6829 5.57667 61.7111 6.34758 61.7299 7.28773C61.7487 8.22787 61.7487 9.28083 61.7299 10.4466C61.7299 11.5936 61.7205 12.7782 61.7017 14.0003C61.6829 15.2037 61.6452 16.3883 61.5888 17.5541C61.5512 18.701 61.4948 19.7446 61.4196 20.6847C61.3444 21.6249 61.2598 22.4146 61.1658 23.0539C61.0718 23.6744 60.9683 24.0505 60.8555 24.1821C60.6863 24.3701 60.3667 24.5205 59.8966 24.6333C59.4453 24.7274 58.9188 24.8026 58.3171 24.859C57.7155 24.8966 57.0762 24.9154 56.3993 24.9154C55.7224 24.9154 55.0925 24.8872 54.5096 24.8308C53.9267 24.7556 53.4284 24.671 53.0147 24.5769C52.6011 24.4641 52.3566 24.3419 52.2814 24.2103C52.2062 24.0787 52.1216 23.8248 52.0276 23.4488C51.9336 23.0727 51.8302 22.6496 51.7173 22.1796C51.6233 21.6907 51.5199 21.1924 51.4071 20.6847C51.2943 20.1583 51.1721 19.6882 51.0404 19.2745C50.9088 18.8421 50.7772 18.4942 50.6456 18.231C50.514 17.9677 50.3729 17.8455 50.2225 17.8643C50.0721 17.8831 49.9499 18.0524 49.8559 18.372C49.7619 18.6728 49.6678 19.0583 49.5738 19.5284C49.4986 19.9984 49.414 20.5155 49.32 21.0796C49.2448 21.6249 49.1602 22.142 49.0661 22.6308C48.9721 23.1197 48.8593 23.5428 48.7277 23.9C48.5961 24.2573 48.4363 24.4641 48.2482 24.5205C48.0602 24.5769 47.7405 24.6333 47.2893 24.6898C46.838 24.7462 46.3115 24.7838 45.7098 24.8026C45.127 24.8214 44.5159 24.8308 43.8766 24.8308C43.2373 24.812 42.6262 24.7744 42.0433 24.718C41.4792 24.6427 40.9809 24.5487 40.5485 24.4359C40.116 24.3043 39.8246 24.1445 39.6741 23.9564C39.5613 23.806 39.4579 23.4206 39.3639 22.8001C39.2887 22.1796 39.2135 21.4087 39.1383 20.4873C39.0818 19.5472 39.0348 18.513 38.9972 17.3849C38.9596 16.2379 38.9314 15.0721 38.9126 13.8875C38.9126 12.7029 38.9126 11.5466 38.9126 10.4184C38.9314 9.27143 38.9596 8.23727 38.9972 7.31593C39.0348 6.39459 39.0818 5.63308 39.1383 5.03139C39.2135 4.42969 39.2981 4.06304 39.3921 3.93142C39.5049 3.76219 39.7305 3.63057 40.069 3.53656C40.4074 3.44254 40.7929 3.37673 41.2254 3.33913C41.6578 3.30152 42.1185 3.28272 42.6074 3.28272C43.0962 3.28272 43.5569 3.31092 43.9894 3.36733C44.4218 3.40494 44.7979 3.47075 45.1176 3.56476C45.456 3.63997 45.6816 3.72459 45.7945 3.8186C45.9073 3.91262 45.9637 4.16645 45.9637 4.58012C45.9825 4.99378 45.9637 5.48265 45.9073 6.04674C45.8509 6.61082 45.7757 7.21251 45.6816 7.85181C45.6064 8.4723 45.55 9.05519 45.5124 9.60048C45.4748 10.127 45.4654 10.5782 45.4842 10.9543C45.5218 11.3115 45.6252 11.509 45.7945 11.5466C45.9449 11.5842 46.0953 11.4338 46.2457 11.0953C46.4149 10.738 46.5748 10.2962 46.7252 9.7697C46.8756 9.22442 47.026 8.62273 47.1765 7.96463C47.3457 7.30653 47.5055 6.68603 47.6559 6.10315C47.8064 5.52026 47.9568 5.01258 48.1072 4.58012C48.2576 4.14765 48.4175 3.88441 48.5867 3.7904C48.8311 3.65878 49.1226 3.54596 49.461 3.45195C49.8183 3.35793 50.1755 3.31092 50.5328 3.31092C50.9088 3.29212 51.2661 3.32033 51.6045 3.39554C51.943 3.45195 52.225 3.56476 52.4507 3.73399ZM64.095 6.55441C64.1703 5.61427 64.2925 4.90917 64.4617 4.4391C64.6309 3.96902 64.8566 3.63997 65.1386 3.45195C65.4206 3.26392 65.7591 3.1699 66.154 3.1699C66.5488 3.1699 67.0095 3.1699 67.536 3.1699C68.4009 3.1699 69.0872 3.1793 69.5949 3.19811C70.1026 3.21691 70.488 3.33913 70.7513 3.56476C71.0333 3.7904 71.2213 4.16645 71.3153 4.69293C71.4094 5.20061 71.4752 5.95272 71.5128 6.94927C71.5316 7.87061 71.5504 8.90477 71.5692 10.0517C71.588 11.1987 71.5974 12.3739 71.5974 13.5773C71.6162 14.7807 71.6256 15.9746 71.6256 17.1592C71.6256 18.3438 71.6256 19.4344 71.6256 20.4309C71.6256 21.6155 71.5974 22.518 71.541 23.1385C71.5034 23.759 71.3529 24.2103 71.0897 24.4923C70.8453 24.7744 70.4598 24.9436 69.9333 25C69.4069 25.0376 68.6641 25.0752 67.7052 25.1128C66.8967 25.1504 66.248 25.1128 65.7591 25C65.2702 24.906 64.8848 24.7086 64.6027 24.4077C64.3395 24.0881 64.1515 23.6556 64.0386 23.1103C63.9258 22.565 63.8506 21.8693 63.813 21.0232C63.7566 19.989 63.7284 18.8421 63.7284 17.5823C63.7284 16.3037 63.7378 15.0063 63.7566 13.6901C63.7942 12.3739 63.8412 11.0953 63.8976 9.85431C63.954 8.61333 64.0198 7.51336 64.095 6.55441ZM79.9348 21.277C79.8972 21.4463 79.8878 21.7095 79.9066 22.0668C79.9254 22.4052 79.9348 22.7625 79.9348 23.1385C79.9348 23.4958 79.8972 23.8342 79.822 24.1539C79.7468 24.4547 79.5964 24.6427 79.3707 24.718C79.1451 24.7932 78.769 24.859 78.2426 24.9154C77.7161 24.953 77.1708 24.9718 76.6067 24.9718C76.0426 24.953 75.5162 24.9154 75.0273 24.859C74.5572 24.7838 74.2564 24.6615 74.1247 24.4923C74.0307 24.3983 73.9461 23.9376 73.8709 23.1103C73.8145 22.283 73.7675 21.2488 73.7299 20.0078C73.6923 18.7481 73.6547 17.366 73.6171 15.8618C73.5983 14.3576 73.5889 12.8816 73.5889 11.4338C73.5889 9.98593 73.5983 8.65093 73.6171 7.42875C73.6547 6.18776 73.7017 5.22881 73.7581 4.55191C73.7957 4.17585 74.0589 3.88441 74.5478 3.67758C75.0367 3.45195 75.6478 3.28272 76.3811 3.1699C77.1332 3.05709 77.9511 2.99128 78.8349 2.97247C79.7374 2.95367 80.6023 2.97247 81.4296 3.02888C82.2758 3.06649 83.0373 3.1323 83.7142 3.22631C84.4099 3.30152 84.9176 3.38614 85.2372 3.48015C86.0269 3.70578 86.6662 4.05364 87.1551 4.52371C87.6628 4.99378 88.0576 5.55786 88.3397 6.21596C88.6217 6.85526 88.8098 7.57917 88.9038 8.38769C88.9978 9.19621 89.0354 10.0517 89.0166 10.9543C88.9978 11.8568 88.9884 12.6653 88.9884 13.3798C89.0072 14.0944 88.9884 14.7431 88.932 15.3259C88.8944 15.89 88.8192 16.3977 88.7063 16.849C88.6123 17.2814 88.4431 17.6763 88.1987 18.0335C87.9542 18.372 87.7474 18.6352 87.5782 18.8233C87.409 18.9925 87.2679 19.1241 87.1551 19.2181C87.0423 19.3121 86.9671 19.3968 86.9295 19.472C86.8919 19.5284 86.8825 19.6224 86.9013 19.754C86.9013 19.848 86.9859 20.0172 87.1551 20.2617C87.3431 20.5061 87.5594 20.7882 87.8038 21.1078C88.0482 21.4275 88.3021 21.7753 88.5653 22.1514C88.8286 22.5086 89.0542 22.8565 89.2422 23.1949C89.4491 23.5146 89.5901 23.806 89.6653 24.0693C89.7405 24.3137 89.7123 24.4829 89.5807 24.5769C89.3738 24.7274 88.9602 24.8402 88.3397 24.9154C87.7192 24.9906 87.0517 25.0282 86.3372 25.0282C85.6415 25.0282 84.974 25.0094 84.3347 24.9718C83.7142 24.9154 83.2817 24.8402 83.0373 24.7462C82.9809 24.7274 82.8775 24.5957 82.727 24.3513C82.5766 24.1069 82.398 23.8154 82.1912 23.477C82.0031 23.1385 81.7963 22.7907 81.5707 22.4334C81.3638 22.0762 81.1476 21.7753 80.922 21.5309C80.7151 21.2676 80.5177 21.0984 80.3297 21.0232C80.1605 20.948 80.0288 21.0326 79.9348 21.277ZM79.5682 15.4106C79.5682 15.8054 79.7374 16.1063 80.0758 16.3131C80.4331 16.5011 80.8186 16.5857 81.2322 16.5669C81.6647 16.5481 82.0689 16.4353 82.445 16.2285C82.8211 16.0216 83.0279 15.7208 83.0655 15.3259C83.1219 14.7807 83.1689 14.273 83.2065 13.8029C83.2629 13.3328 83.2911 12.8534 83.2911 12.3645C83.3099 11.8756 83.3005 11.3585 83.2629 10.8133C83.2441 10.268 83.2065 9.64748 83.1501 8.95178C83.1125 8.53811 82.9151 8.23727 82.5578 8.04924C82.2006 7.84241 81.8057 7.73899 81.3732 7.73899C80.9596 7.73899 80.5647 7.84241 80.1887 8.04924C79.8314 8.23727 79.634 8.50991 79.5964 8.86716C79.54 9.43125 79.5024 10.0705 79.4836 10.7851C79.4836 11.4808 79.493 12.1483 79.5118 12.7876C79.5306 13.4269 79.54 13.9909 79.54 14.4798C79.5588 14.9687 79.5682 15.2789 79.5682 15.4106ZM105.944 9.00818C105.775 9.121 105.512 9.20561 105.155 9.26202C104.797 9.31843 104.393 9.36544 103.942 9.40304C103.491 9.44065 103.021 9.46886 102.532 9.48766C102.043 9.50646 101.582 9.52526 101.15 9.54407C100.736 9.56287 100.379 9.58167 100.078 9.60048C99.7771 9.61928 99.5891 9.65688 99.5139 9.71329C99.4011 9.7885 99.3164 9.92952 99.26 10.1364C99.2224 10.3432 99.2036 10.5688 99.2036 10.8133C99.2036 11.0577 99.2224 11.2927 99.26 11.5184C99.3164 11.744 99.3728 11.9132 99.4293 12.026C99.4857 12.1389 99.6643 12.2047 99.9651 12.2235C100.285 12.2235 100.623 12.2235 100.98 12.2235C101.357 12.2047 101.714 12.2047 102.052 12.2235C102.391 12.2423 102.626 12.3081 102.757 12.4209C102.889 12.5525 103.002 12.7594 103.096 13.0414C103.19 13.3234 103.256 13.6337 103.293 13.9721C103.331 14.3106 103.34 14.6584 103.321 15.0157C103.303 15.3729 103.237 15.6738 103.124 15.9182C103.049 16.0875 102.851 16.2003 102.532 16.2567C102.212 16.2943 101.845 16.3413 101.432 16.3977C101.037 16.4353 100.633 16.5011 100.219 16.5951C99.8053 16.6891 99.4763 16.8678 99.2318 17.131C99.1566 17.2062 99.1096 17.319 99.0908 17.4695C99.0908 17.6199 99.1002 17.7797 99.119 17.9489C99.1378 18.1182 99.166 18.2968 99.2036 18.4848C99.2412 18.6728 99.2788 18.8421 99.3164 18.9925C99.3352 19.1429 99.4951 19.2463 99.7959 19.3027C100.116 19.3591 100.501 19.3874 100.952 19.3874C101.422 19.3874 101.93 19.378 102.475 19.3591C103.021 19.3215 103.547 19.3027 104.055 19.3027C104.562 19.3027 105.014 19.3215 105.409 19.3591C105.822 19.3968 106.114 19.472 106.283 19.5848C106.452 19.6976 106.574 19.989 106.65 20.4591C106.744 20.9104 106.8 21.4087 106.819 21.9539C106.838 22.4804 106.828 22.9881 106.791 23.477C106.753 23.9658 106.697 24.2855 106.621 24.4359C106.584 24.5111 106.349 24.5863 105.916 24.6615C105.503 24.718 104.957 24.7838 104.28 24.859C103.622 24.9154 102.87 24.9624 102.024 25C101.178 25.0376 100.313 25.0658 99.4293 25.0846C98.5455 25.1222 97.6712 25.1316 96.8063 25.1128C95.9413 25.1128 95.1516 25.0846 94.4371 25.0282C93.7414 24.9906 93.1491 24.9248 92.6602 24.8308C92.1902 24.7368 91.8987 24.6239 91.7859 24.4923C91.5415 24.2103 91.3628 23.665 91.25 22.8565C91.1372 22.048 91.062 21.0702 91.0244 19.9232C90.9868 18.7575 90.9868 17.4695 91.0244 16.0593C91.062 14.649 91.109 13.2012 91.1654 11.7158C91.2218 10.2304 91.2688 8.96118 91.3064 7.90822C91.344 6.83646 91.4663 5.96212 91.6731 5.28522C91.8799 4.60832 92.2278 4.11005 92.7166 3.7904C93.2243 3.47075 93.967 3.29212 94.9448 3.25452C95.7909 3.21691 96.731 3.1793 97.7652 3.1417C98.8182 3.10409 99.8523 3.09469 100.868 3.1135C101.902 3.1323 102.861 3.18871 103.745 3.28272C104.628 3.35793 105.333 3.50835 105.86 3.73399C106.123 3.84681 106.302 4.15705 106.396 4.66473C106.49 5.1536 106.518 5.69888 106.48 6.30058C106.462 6.88346 106.396 7.43815 106.283 7.96463C106.17 8.49111 106.057 8.83896 105.944 9.00818Z" fill="white"/>
<path d="M2 11.3281C8.58483 17.913 19.2402 17.5329 27.9823 17.5329C38.1354 17.5329 47.2002 14.3711 56.6791 11.1127C65.0602 8.2317 73.3949 7.4502 82.2736 7.4502C87.107 7.4502 92.2507 9.82373 95.3725 13.6549C98.6595 17.689 97.7785 23.7101 98.9488 28.3911" stroke="black" stroke-width="2.96887" stroke-linecap="round"/>
</svg>
