<svg width="374" height="400" viewBox="0 0 374 400" fill="none" xmlns="http://www.w3.org/2000/svg">
<path d="M374 340.5C374 401.251 290.053 399.5 186.5 399.5C82.9466 399.5 -1 401.251 -1 340.5C-1 279.749 82.9466 190 186.5 190C290.053 190 374 279.749 374 340.5Z" fill="url(#paint0_linear_390_221)"/>
<path d="M374 39.0049C374 -21.7464 290.053 -19.9951 186.5 -19.9951C82.9466 -19.9951 -1 -21.7464 -1 39.0049C-1 99.7562 82.9466 189.505 186.5 189.505C290.053 189.505 374 99.7562 374 39.0049Z" fill="url(#paint1_linear_390_221)"/>
<defs>
<linearGradient id="paint0_linear_390_221" x1="137" y1="190.147" x2="137" y2="399.653" gradientUnits="userSpaceOnUse">
<stop stop-color="#003EC9"/>
<stop offset="1"/>
</linearGradient>
<linearGradient id="paint1_linear_390_221" x1="137" y1="215.363" x2="137" y2="5.85759" gradientUnits="userSpaceOnUse">
<stop stop-color="#003EC9"/>
<stop offset="1"/>
</linearGradient>
</defs>
</svg>
