<svg width="374" height="400" viewBox="0 0 374 400" fill="none" xmlns="http://www.w3.org/2000/svg">
<path d="M374 340.5C374 401.251 290.053 399.5 186.5 399.5C82.9466 399.5 -1 401.251 -1 340.5C-1 279.749 82.9466 190 186.5 190C290.053 190 374 279.749 374 340.5Z" fill="url(#paint0_linear_401_221)"/>
<path d="M373.5 340.5C373.5 355.556 368.307 366.696 358.934 374.973C349.54 383.27 335.908 388.722 318.979 392.293C286.962 399.045 243.377 399.025 194.941 399.003C192.143 399.001 189.329 399 186.5 399C183.671 399 180.857 399.001 178.059 399.003C129.623 399.025 86.0379 399.045 54.0207 392.293C37.0916 388.722 23.4599 383.27 14.0656 374.973C4.69316 366.696 -0.5 355.556 -0.5 340.5C-0.5 310.325 20.3731 272.825 54.2489 242.843C88.1067 212.876 134.868 190.5 186.5 190.5C238.132 190.5 284.893 212.876 318.751 242.843C352.627 272.825 373.5 310.325 373.5 340.5Z" stroke="url(#paint1_linear_401_221)" stroke-opacity="0.4"/>
<path d="M374 39.0049C374 -21.7464 290.053 -19.9951 186.5 -19.9951C82.9466 -19.9951 -1 -21.7464 -1 39.0049C-1 99.7562 82.9466 189.505 186.5 189.505C290.053 189.505 374 99.7562 374 39.0049Z" fill="url(#paint2_linear_401_221)"/>
<path d="M373.5 39.0049C373.5 23.9493 368.307 12.8084 358.934 4.53145C349.54 -3.76476 335.908 -9.21724 318.979 -12.7876C286.962 -19.5401 243.377 -19.52 194.941 -19.4977C192.143 -19.4964 189.329 -19.4951 186.5 -19.4951C183.671 -19.4951 180.857 -19.4964 178.059 -19.4977C129.623 -19.52 86.0379 -19.5401 54.0207 -12.7876C37.0916 -9.21724 23.4599 -3.76476 14.0656 4.53145C4.69316 12.8084 -0.5 23.9493 -0.5 39.0049C-0.5 69.18 20.3731 106.68 54.2489 136.662C88.1067 166.629 134.868 189.005 186.5 189.005C238.132 189.005 284.893 166.629 318.751 136.662C352.627 106.68 373.5 69.18 373.5 39.0049Z" stroke="url(#paint3_linear_401_221)" stroke-opacity="0.4"/>
<defs>
<linearGradient id="paint0_linear_401_221" x1="137" y1="190.147" x2="137" y2="399.653" gradientUnits="userSpaceOnUse">
<stop stop-color="#1B61FF"/>
<stop offset="1"/>
</linearGradient>
<linearGradient id="paint1_linear_401_221" x1="185.645" y1="190" x2="187.374" y2="399.505" gradientUnits="userSpaceOnUse">
<stop stop-color="white"/>
<stop offset="1" stop-color="#999999" stop-opacity="0"/>
</linearGradient>
<linearGradient id="paint2_linear_401_221" x1="137" y1="215.363" x2="137" y2="5.85759" gradientUnits="userSpaceOnUse">
<stop stop-color="#1B61FF"/>
<stop offset="1"/>
</linearGradient>
<linearGradient id="paint3_linear_401_221" x1="186.615" y1="189.505" x2="186.385" y2="-20.0003" gradientUnits="userSpaceOnUse">
<stop stop-color="white"/>
<stop offset="1" stop-color="#999999" stop-opacity="0"/>
</linearGradient>
</defs>
</svg>
